:SAMPLES-PER-SECOND 30
:FULLY-SPECIFIED
:DEGREES
492
root  4.10088 34.3479 -13.7239 -170.318 60.8994 179.064
LeftUpLeg  -15.1768 13.9189 0.4422
LeftLeg  10.8219 12.1659 1.51098
LeftFoot  5.11122 -0.0474027 1.06201
LeftToes  -17.7662 7.65994e-007 1.12379e-007
Spine  4.27374 -1.34244 1.23958
Spine1  8.31473 -3.00503 2.65685
RightShoulder  0.00602299 5.17477 -2.19879
RightArm  19.1159 -18.8223 72.1998
RightForeArm  78.2283 79.885 87.051
RightHand  -0.67905 -6.54969 12.1834
LeftShoulder1  0.0306707 2.34541 -1.56699
LeftArm  18.2112 -27.8853 -82.9564
LeftForeArm  126.125 -48.749 -168.123
LeftHand  2.04994 18.5408 12.136
HEad  16.2775 -19.6268 -2.46158
RightUpLeg  -14.9696 -8.68827 0.648669
RightLeg  10.4388 6.61161 0.783408
RightFoot  1.87495 0.00250211 0.18807
RightToes  -25.3584 -0.113299 -0.21849
493
root  4.28028 34.336 -13.6821 -170.656 62.0175 179.12
LeftUpLeg  -14.7157 14.0168 0.861464
LeftLeg  11.6421 13.1091 1.81522
LeftFoot  4.62858 -0.0421634 1.04325
LeftToes  -17.8595 7.65994e-007 1.12379e-007
Spine  4.12252 -1.33723 1.27837
Spine1  8.02665 -2.97708 2.71184
RightShoulder  0.00492767 4.88739 -2.13882
RightArm  19.657 -18.553 72.0605
RightForeArm  77.4087 79.8753 86.0767
RightHand  -0.694661 -6.57228 12.4118
LeftShoulder1  0.0282453 2.11687 -1.64229
LeftArm  18.3307 -27.3792 -82.8217
LeftForeArm  126.747 -48.446 -168.245
LeftHand  2.07084 18.2976 12.4319
HEad  16.6703 -19.3677 -2.75367
RightUpLeg  -14.5579 -8.42865 0.7601
RightLeg  10.7352 7.55488 0.934017
RightFoot  1.46141 0.00176324 0.167514
RightToes  -24.9769 -0.112177 -0.215481
494
root  4.45635 34.3123 -13.6348 -170.923 63.0959 179.271
LeftUpLeg  -14.5136 14.0326 1.33312
LeftLeg  13.0603 14.0446 2.29379
LeftFoot  3.92159 -0.0324911 0.95212
LeftToes  -18.1991 7.65994e-007 1.12379e-007
Spine  4.02027 -1.35138 1.30526
Spine1  7.83594 -2.99047 2.74594
RightShoulder  0.0040251 4.80148 -2.0975
RightArm  20.0614 -18.2587 71.9588
RightForeArm  77.0032 79.8631 85.1656
RightHand  -0.708176 -6.51578 12.75
LeftShoulder1  0.0265019 1.98409 -1.81187
LeftArm  18.485 -27.0256 -82.6636
LeftForeArm  127.335 -48.2374 -168.328
LeftHand  2.07387 17.9846 12.6754
HEad  16.9219 -18.8962 -2.90245
RightUpLeg  -14.2085 -8.47186 0.955247
RightLeg  11.2092 8.71148 1.14886
RightFoot  0.9538 0.00212103 0.122638
RightToes  -24.6539 -0.111375 -0.213147
495
root  4.63965 34.28 -13.5923 -171.011 64.0868 179.747
LeftUpLeg  -14.3503 13.5815 2.01166
LeftLeg  14.9157 15.2468 2.98833
LeftFoot  3.08437 -0.0219322 0.814613
LeftToes  -18.4664 7.65994e-007 1.12379e-007
Spine  3.98389 -1.39789 1.36553
Spine1  7.76196 -3.08789 2.86321
RightShoulder  0.00324074 4.72024 -2.05059
RightArm  20.3971 -17.9526 71.8505
RightForeArm  76.0546 79.8426 83.9034
RightHand  -0.709976 -6.48493 12.8399
LeftShoulder1  0.0259376 1.98531 -1.97566
LeftArm  18.6742 -26.6819 -82.7045
LeftForeArm  127.737 -48.173 -168.353
LeftHand  2.07443 17.7563 12.8479
HEad  17.1511 -18.2853 -2.97303
RightUpLeg  -13.6905 -8.70273 1.27742
RightLeg  11.6302 9.96898 1.38729
RightFoot  0.463391 0.00128947 0.0585872
RightToes  -24.2665 -0.110849 -0.211548
496
root  4.80306 34.237 -13.5463 -170.942 65.0845 -179.579
LeftUpLeg  -14.5264 13.1507 2.72333
LeftLeg  17.5505 16.3091 3.96416
LeftFoot  2.00896 -0.00978597 0.558124
LeftToes  -18.4899 7.65994e-007 1.12379e-007
Spine  3.99666 -1.42939 1.44796
Spine1  7.76867 -3.17823 3.04981
RightShoulder  0.00244872 4.62781 -2.04853
RightArm  20.6171 -17.6788 71.7623
RightForeArm  75.9721 79.8318 83.3569
RightHand  -0.71158 -6.48082 12.8757
LeftShoulder1  0.0282282 1.84596 -2.05821
LeftArm  18.5496 -26.2644 -82.6906
LeftForeArm  128.121 -48.0826 -168.388
LeftHand  2.05975 17.5394 12.9185
HEad  17.1949 -17.6711 -3.04532
RightUpLeg  -13.1845 -9.09834 1.65072
RightLeg  12.0969 11.3916 1.67683
RightFoot  -0.0228431 -8.09305e-005 -0.0293114
RightToes  -23.9677 -0.110555 -0.210261
497
root  4.95739 34.1928 -13.5109 -170.254 65.9116 -178.066
LeftUpLeg  -14.5941 12.308 3.81319
LeftLeg  20.3025 16.8978 4.95658
LeftFoot  0.439923 -0.000305811 0.0796489
LeftToes  -16.9356 7.65994e-007 1.12379e-007
Spine  4.14425 -1.51862 1.65388
Spine1  7.99955 -3.43666 3.52638
RightShoulder  0.00150611 4.58181 -2.17961
RightArm  20.7133 -17.3705 71.7374
RightForeArm  76.521 79.827 83.203
RightHand  -0.701907 -6.45417 12.7576
LeftShoulder1  0.0356371 1.58849 -1.91343
LeftArm  18.1925 -25.8603 -82.9573
LeftForeArm  128.962 -48.1656 -168.351
LeftHand  2.01578 17.1583 12.9279
HEad  16.8701 -16.8796 -3.18146
RightUpLeg  -12.4485 -9.53403 2.28983
RightLeg  12.4251 12.6491 1.93255
RightFoot  -0.340033 -0.00144075 -0.108205
RightToes  -23.8539 -0.11045 -0.209425
498
root  5.06047 34.1433 -13.4947 -169.862 66.6383 -177.094
LeftUpLeg  -14.9278 10.6797 4.69521
LeftLeg  23.0696 16.0062 5.53987
LeftFoot  -1.89727 -0.0106846 -0.64527
LeftToes  -11.979 7.65994e-007 1.12379e-007
Spine  4.32667 -1.66589 1.79809
Spine1  8.2987 -3.81057 3.88146
RightShoulder  0.000224712 4.85277 -2.62534
RightArm  20.7827 -16.9598 72.0585
RightForeArm  77.4102 79.8225 82.9853
RightHand  -0.665272 -6.25338 12.4904
LeftShoulder1  0.0431375 1.18677 -1.50808
LeftArm  16.9148 -25.5389 -83.2389
LeftForeArm  130.38 -48.3054 -168.289
LeftHand  1.97686 16.5602 13.1468
HEad  15.8752 -15.635 -3.3843
RightUpLeg  -12.1045 -9.90237 2.63382
RightLeg  13.0804 13.7624 2.25911
RightFoot  -0.763913 -0.00402551 -0.226496
RightToes  -23.8777 -0.110489 -0.209182
499
root  5.10983 34.0926 -13.4955 -169.382 67.3247 -175.856
LeftUpLeg  -15.3743 8.63056 5.67701
LeftLeg  26.0948 14.0539 5.71623
LeftFoot  -3.96363 -0.0400934 -1.15864
LeftToes  -7.75431 7.65994e-007 1.12379e-007
Spine  4.77231 -1.8707 2.01398
Spine1  9.06658 -4.36963 4.45381
RightShoulder  -0.00146663 5.30172 -3.41319
RightArm  21.0584 -16.0671 72.6689
RightForeArm  80.5063 79.8218 83.0762
RightHand  -0.513294 -5.49939 11.0136
LeftShoulder1  0.0566538 0.385662 -0.638729
LeftArm  14.5946 -25.5586 -83.7292
LeftForeArm  131.621 -48.7455 -168.103
LeftHand  1.89532 15.7763 13.2408
HEad  13.4507 -14.0509 -3.54125
RightUpLeg  -11.8191 -9.96726 2.95816
RightLeg  14.0742 14.4996 2.6334
RightFoot  -1.19875 -0.00775971 -0.364401
RightToes  -24.1961 -0.110627 -0.209674
500
root  5.07656 34.0435 -13.5164 -169.014 68.017 -174.737
LeftUpLeg  -16.004 6.35881 6.46867
LeftLeg  28.5677 10.6786 4.90952
LeftFoot  -4.38486 -0.0394643 -1.03082
LeftToes  -10.2112 7.65994e-007 1.12379e-007
Spine  5.46702 -2.15363 2.18409
Spine1  10.2692 -5.15723 5.03775
RightShoulder  -0.003635 5.97581 -4.7116
RightArm  21.4191 -14.7087 74.2154
RightForeArm  81.6907 79.739 79.9369
RightHand  -0.349147 -4.56345 9.10269
LeftShoulder1  0.0766105 -0.736356 0.514668
LeftArm  11.4266 -26.0052 -83.9079
LeftForeArm  133.633 -49.3692 -167.833
LeftHand  1.7219 14.2945 13.2915
HEad  9.33519 -12.1311 -3.72538
RightUpLeg  -11.7646 -9.88006 3.12551
RightLeg  15.3369 15.0701 3.07432
RightFoot  -1.60655 -0.0124564 -0.511086
RightToes  -24.5261 -0.110822 -0.21218
501
root  4.95256 34.0157 -13.5586 -168.728 68.6829 -174.097
LeftUpLeg  -16.9377 4.23977 6.89731
LeftLeg  29.2825 6.11626 2.91883
LeftFoot  -4.21257 -0.0240585 -0.654153
LeftToes  -13.0578 7.65994e-007 1.12379e-007
Spine  6.28637 -2.41053 2.25034
Spine1  11.7163 -5.90792 5.48182
RightShoulder  -0.00729152 6.64474 -6.28102
RightArm  22.0666 -12.6594 76.0759
RightForeArm  80.3599 79.5646 75.3944
RightHand  -0.254361 -3.76476 8.08366
LeftShoulder1  0.0953882 -1.98616 1.82222
LeftArm  7.54296 -27.1276 -83.8956
LeftForeArm  136.439 -50.0966 -167.508
LeftHand  1.45642 12.3688 13.0032
HEad  4.61365 -10.7102 -3.54082
RightUpLeg  -12.0621 -9.60563 3.10817
RightLeg  16.2461 15.4114 3.39396
RightFoot  -1.71069 -0.0142333 -0.576022
RightToes  -24.9967 -0.111029 -0.214429
502
root  4.79615 34.0348 -13.6168 -168.509 69.4326 -173.957
LeftUpLeg  -17.6594 2.69632 7.07726
LeftLeg  27.4038 1.77257 0.7754
LeftFoot  -2.69435 -0.0065012 -0.276455
LeftToes  -19.0105 7.65994e-007 1.12379e-007
Spine  6.99476 -2.59479 2.24211
Spine1  12.9579 -6.50287 5.81717
RightShoulder  -0.0124475 6.90536 -8.35847
RightArm  22.4975 -10.995 78.4185
RightForeArm  79.0282 79.3461 71.3039
RightHand  -0.184935 -3.26165 6.84487
LeftShoulder1  0.111692 -2.69383 4.155
LeftArm  3.36589 -27.6155 -84.6079
LeftForeArm  138.388 -51.1089 -167.045
LeftHand  1.07996 10.123 11.77
HEad  0.409776 -9.61986 -3.66182
RightUpLeg  -12.3965 -9.10204 2.92741
RightLeg  16.2204 15.5964 3.42645
RightFoot  -1.31762 -0.0100181 -0.493917
RightToes  -25.1003 -0.111677 -0.216687
503
root  4.59817 34.1063 -13.7062 -168.772 70.4443 -174.853
LeftUpLeg  -18.2786 1.73111 6.79127
LeftLeg  23.6415 -0.151868 -0.0579896
LeftFoot  -0.286936 -0.000525001 -0.209671
LeftToes  -21.9443 7.65994e-007 1.12379e-007
Spine  7.56719 -2.57989 2.05645
Spine1  13.9778 -6.65937 5.81691
RightShoulder  -0.0159039 6.68918 -10.0191
RightArm  22.6363 -10.3717 80.0301
RightForeArm  80.3394 79.3354 71.1332
RightHand  -0.155317 -2.98778 6.30638
LeftShoulder1  0.125759 -3.09942 6.98758
LeftArm  -0.328287 -27.6945 -85.2298
LeftForeArm  138.604 -51.5947 -166.817
LeftHand  0.984867 10.0557 10.7819
HEad  -4.50401 -9.52192 -3.96301
RightUpLeg  -12.8896 -8.4486 2.36225
RightLeg  15.2857 15.9481 3.23422
RightFoot  -0.405261 -0.00224529 -0.257769
RightToes  -25.5362 -0.115002 -0.219777
504
root  4.33534 34.1996 -13.8063 -170.291 71.7636 -177.337
LeftUpLeg  -19.1919 1.31343 5.89935
LeftLeg  20.1097 0.903739 0.264072
LeftFoot  3.24045 0.00547253 -0.193482
LeftToes  -21.1348 7.65994e-007 1.12379e-007
Spine  8.11213 -2.56607 1.66656
Spine1  14.9832 -6.79255 5.43742
RightShoulder  -0.0164059 7.05514 -10.9547
RightArm  22.1046 -10.6304 80.5566
RightForeArm  82.1729 79.4822 73.7246
RightHand  -0.114246 -2.52686 5.53225
LeftShoulder1  0.142625 -2.9492 8.60564
LeftArm  -3.30472 -27.7542 -84.371
LeftForeArm  138.048 -51.6622 -166.787
LeftHand  0.96135 10.0141 10.5625
HEad  -9.53014 -8.8408 -4.58321
RightUpLeg  -13.7326 -7.32375 1.2776
RightLeg  14.2245 16.0173 2.94494
RightFoot  0.700837 0.00203315 0.0450751
RightToes  -26.2128 -0.119456 -0.224802
